#N canvas 899 259 943 564 10;
#X obj 127 87 metro;
#X floatatom 223 -1 10 0 0 0 - - -;
#X obj 374 439 bng 15 250 50 0 empty empty empty 17 7 0 10 -262144
-1 -1;
#X msg 433 440 stop;
#X text 210 -25 Milliseconds per reading;
#X obj 179 96 adc~;
#X obj 180 181 unpack;
#X floatatom 180 228 5 0 0 0 - - -;
#X obj 172 150 fiddle~ 1024 1 20 3;
#X obj 139 432 textfile;
#X msg 26 282 clear;
#X obj 128 127 bng 15 250 50 0 empty empty empty 17 7 0 10 -262144
-1 -1;
#X obj 135 241 f;
#X obj 92 476 print list;
#X obj 185 477 print done;
#X msg 69 404 print;
#N canvas 898 94 450 300 millisgenerator 0;
#X obj -198 30 inlet;
#X obj -199 220 outlet;
#X obj -146 29 inlet;
#X obj -65 28 inlet;
#X text -201 8 BPM;
#X text -146 9 Subdivision;
#X text -67 10 Readings per Subdivision;
#X obj -186 89 delay 100;
#X obj -198 121 expr (4*1000*60)/($f1*$f2*$f3);
#X connect 0 0 8 0;
#X connect 2 0 7 0;
#X connect 2 0 8 1;
#X connect 3 0 7 0;
#X connect 3 0 8 2;
#X connect 7 0 8 0;
#X connect 8 0 1 0;
#X restore 452 68 pd millisgenerator;
#X obj 506 390 hradio 15 1 0 8 empty empty empty 1 -8 0 10 -262144
-1 -1 1;
#X text 504 367 Subdivision;
#X obj 638 399 hradio 15 1 0 8 empty empty empty 0 -8 0 10 -262144
-1 -1 4;
#X text 636 381 Readings per Subdivision;
#X floatatom 399 13 5 0 0 0 - - -;
#X text 400 -15 BPM;
#N canvas 872 541 450 300 metronomegenerator 0;
#X obj 24 19 inlet;
#X obj 21 67 expr (1000*60)/$f1;
#X obj 23 126 outlet;
#X connect 0 0 1 0;
#X connect 1 0 2 0;
#X restore 405 107 pd metronomegenerator;
#X obj 398 156 metro;
#X obj 325 80 receive stop;
#X obj 302 124 receive start;
#X obj 402 191 bng 15 250 50 0 empty empty empty 17 7 0 10 -262144
-1 -1;
#X floatatom 229 226 5 0 0 0 - - -;
#X msg 217 395 write /tmp/audioin.txt cr;
#X obj 177 259 f;
#X msg 148 382 add \$1 \$2;
#X obj 143 303 pack \$1 \$2;
#N canvas 501 625 450 300 select_subdivision 0;
#X obj 58 31 inlet;
#X obj 53 132 outlet;
#X obj 53 81 expr pow(2 \, $f1);
#X connect 0 0 2 0;
#X connect 2 0 1 0;
#X restore 504 446 pd select_subdivision;
#X text 504 405 1 \, 2 \, 4 \, 8 \, 16 \, 32 \, 64 \, 128;
#X obj 641 443 s readings;
#X obj -69 103 r start;
#X obj 53 368 r stop;
#X obj 228 366 r stop;
#X obj 71 22 r stop;
#X obj 118 23 r start;
#X obj 364 497 s start;
#X obj 432 493 s stop;
#X obj 502 495 s subdivision;
#X obj 478 34 r subdivision;
#X obj 568 36 r readings;
#X msg -24 318 add \$1;
#X obj -73 229 r subdivision;
#X obj -147 228 r readings;
#X obj -51 177 t b b b;
#X obj -64 265 f;
#X obj -135 267 f;
#X connect 0 0 11 0;
#X connect 1 0 0 1;
#X connect 2 0 41 0;
#X connect 3 0 42 0;
#X connect 5 0 8 0;
#X connect 6 0 7 0;
#X connect 6 1 28 0;
#X connect 7 0 12 1;
#X connect 8 2 6 0;
#X connect 9 0 13 0;
#X connect 9 1 14 0;
#X connect 10 0 9 0;
#X connect 11 0 12 0;
#X connect 11 0 30 0;
#X connect 12 0 32 0;
#X connect 15 0 9 0;
#X connect 16 0 1 0;
#X connect 17 0 33 0;
#X connect 19 0 35 0;
#X connect 21 0 16 0;
#X connect 21 0 23 0;
#X connect 23 0 24 1;
#X connect 24 0 27 0;
#X connect 25 0 24 0;
#X connect 26 0 24 0;
#X connect 28 0 30 1;
#X connect 29 0 9 0;
#X connect 30 0 32 1;
#X connect 31 0 9 0;
#X connect 32 0 31 0;
#X connect 33 0 43 0;
#X connect 36 0 49 0;
#X connect 37 0 15 0;
#X connect 38 0 29 0;
#X connect 39 0 0 0;
#X connect 40 0 0 0;
#X connect 44 0 16 1;
#X connect 45 0 16 2;
#X connect 46 0 9 0;
#X connect 47 0 50 1;
#X connect 48 0 51 1;
#X connect 49 0 51 0;
#X connect 49 1 50 0;
#X connect 49 2 10 0;
#X connect 50 0 46 0;
#X connect 51 0 46 0;
